<?xml version="1.0" standalone="no"?>
<!DOCTYPE svg PUBLIC "-//W3C//DTD SVG 20010904//EN"
 "http://www.w3.org/TR/2001/REC-SVG-20010904/DTD/svg10.dtd">
<svg version="1.0" xmlns="http://www.w3.org/2000/svg"
 width="251.000000pt" height="201.000000pt" viewBox="0 0 251.000000 201.000000"
 preserveAspectRatio="xMidYMid meet">

<g transform="translate(0.000000,201.000000) scale(0.100000,-0.100000)"
fill="#000000" stroke="none">
<path d="M1085 1440 l0 -210 338 0 337 0 0 198 0 197 159 -3 160 -3 4 -42 4
-42 1 45 2 45 120 -3 c103 -3 120 -1 120 12 0 14 -65 16 -622 16 l-623 0 0
-210z m235 -20 l0 -131 -102 3 -103 3 -1 110 c-1 61 1 118 3 128 4 15 17 17
104 17 l99 0 0 -130z m270 0 l0 -130 -105 0 -105 0 0 130 0 130 105 0 105 0 0
-130z m70 91 c0 -17 -4 -33 -10 -36 -6 -4 -10 8 -10 29 0 20 5 36 10 36 6 0
10 -13 10 -29z m-350 -246 c0 -11 -15 -13 -77 -11 -105 5 -103 5 -103 16 0 6
37 10 90 10 72 0 90 -3 90 -15z m270 2 c0 -10 -22 -13 -92 -11 -110 3 -101 2
-93 14 10 16 185 13 185 -3z"/>
<path d="M552 1518 c4 -10 65 -14 251 -16 215 -2 247 0 247 13 0 13 -33 15
-251 15 -196 0 -250 -3 -247 -12z"/>
<path d="M2083 1480 c0 -30 2 -43 4 -27 2 15 2 39 0 55 -2 15 -4 2 -4 -28z"/>
<path d="M1898 1375 c3 -37 8 -55 17 -55 9 0 11 -8 7 -22 l-5 -22 -8 22 c-5
12 -11 22 -13 22 -13 0 -126 -72 -126 -80 0 -6 66 -10 161 -10 121 0 160 3
157 12 -3 7 -31 28 -64 48 l-59 37 2 51 1 52 -36 0 -37 0 3 -55z m-5 -122 c-7
-2 -19 -2 -25 0 -7 3 -2 5 12 5 14 0 19 -2 13 -5z"/>
<path d="M270 1398 c0 -4 4 -8 9 -8 6 0 12 4 15 8 3 5 -1 9 -9 9 -8 0 -15 -4
-15 -9z"/>
<path d="M2102 1380 c0 -14 2 -19 5 -12 2 6 2 18 0 25 -3 6 -5 1 -5 -13z"/>
<path d="M557 1354 c-19 -20 26 -24 249 -24 192 0 245 3 242 13 -4 9 -63 13
-244 15 -132 1 -243 -1 -247 -4z"/>
<path d="M2321 1254 c0 -11 3 -14 6 -6 3 7 2 16 -1 19 -3 4 -6 -2 -5 -13z"/>
<path d="M512 773 l3 -428 622 -3 623 -2 -2 227 -3 228 -2 -217 -3 -218 -115
0 -115 0 -2 218 c-1 119 -4 169 -5 110 l-4 -108 -359 0 -360 0 0 310 0 310
-140 0 -140 0 2 -427z m233 393 c0 -14 -33 -17 -112 -10 -105 9 -90 25 20 22
50 -2 92 -7 92 -12z m0 -96 c4 -6 -28 -10 -89 -10 -57 0 -96 4 -96 10 0 6 36
10 89 10 50 0 93 -4 96 -10z m0 -100 c4 -6 -28 -10 -89 -10 -57 0 -96 4 -96
10 0 6 36 10 89 10 50 0 93 -4 96 -10z m0 -100 c4 -6 -28 -10 -89 -10 -57 0
-96 4 -96 10 0 6 36 10 89 10 50 0 93 -4 96 -10z m0 -100 c4 -6 -28 -10 -89
-10 -57 0 -96 4 -96 10 0 6 36 10 89 10 50 0 93 -4 96 -10z m765 -305 l0 -105
-210 0 -210 0 0 105 0 105 210 0 210 0 0 -105z m-480 45 c0 -6 -38 -10 -95
-10 -57 0 -95 4 -95 10 0 6 38 10 95 10 57 0 95 -4 95 -10z"/>
<path d="M850 1080 l0 -90 105 0 105 0 0 90 0 90 -105 0 -105 0 0 -90z"/>
<path d="M1230 951 c-13 -25 -13 -42 1 -18 13 23 29 22 29 -3 0 -11 5 -20 10
-20 6 0 10 5 10 11 0 16 -20 49 -30 49 -5 0 -14 -9 -20 -19z"/>
<path d="M820 915 l0 -25 120 0 120 0 0 25 0 25 -120 0 -120 0 0 -25z m80 0
c0 -8 -4 -15 -10 -15 -5 0 -10 7 -10 15 0 8 5 15 10 15 6 0 10 -7 10 -15z
m120 -4 c0 -3 -11 -7 -25 -7 -24 -2 -32 6 -19 18 7 7 44 -2 44 -11z m-60 -7
c0 -2 -12 -4 -26 -4 -14 0 -23 4 -20 9 6 8 46 4 46 -5z m90 6 c0 -5 -4 -10
-10 -10 -5 0 -10 5 -10 10 0 6 5 10 10 10 6 0 10 -4 10 -10z"/>
<path d="M2200 905 c-7 -8 -16 -12 -21 -9 -16 9 -10 -34 7 -50 16 -17 51 -21
70 -8 15 10 25 42 14 42 -6 0 -10 5 -10 11 0 5 5 7 12 3 7 -4 8 -3 4 4 -5 8
-15 8 -33 1 -23 -8 -24 -8 -13 6 10 12 10 15 -3 15 -8 0 -20 -7 -27 -15z"/>
<path d="M1210 892 c0 -10 -5 -23 -12 -30 -9 -9 -9 -12 3 -12 9 0 16 11 17 30
1 17 0 30 -3 30 -3 0 -5 -8 -5 -18z"/>
<path d="M868 873 c39 -2 105 -2 145 0 39 1 7 3 -73 3 -80 0 -112 -2 -72 -3z"/>
<path d="M822 743 c2 -71 6 -98 16 -97 6 1 59 2 117 3 l105 1 0 95 0 95 -120
0 -121 0 3 -97z"/>
<path d="M1790 780 c0 -19 7 -20 140 -20 133 0 140 1 140 20 0 11 -4 20 -10
20 -5 0 -10 -7 -10 -15 0 -8 -4 -15 -10 -15 -5 0 -10 7 -10 15 0 8 -4 15 -10
15 -5 0 -7 -7 -4 -15 4 -9 0 -15 -10 -15 -10 0 -13 6 -10 15 4 9 0 15 -10 15
-9 0 -16 -7 -16 -15 0 -8 -5 -15 -11 -15 -6 0 -9 7 -5 15 3 8 1 15 -4 15 -6 0
-10 -7 -10 -15 0 -8 -5 -15 -11 -15 -6 0 -9 7 -5 15 4 11 -2 15 -24 15 -22 0
-28 -4 -24 -15 4 -8 1 -15 -5 -15 -6 0 -11 7 -11 15 0 8 -7 15 -15 15 -8 0
-14 -3 -12 -7 1 -5 -2 -9 -8 -9 -5 -1 -9 2 -7 7 1 5 -5 9 -13 9 -8 0 -15 -9
-15 -20z m120 0 c0 -5 -4 -10 -10 -10 -5 0 -10 5 -10 10 0 6 5 10 10 10 6 0
10 -4 10 -10z"/>
<path d="M1084 690 c0 -58 1 -81 3 -52 2 28 2 76 0 105 -2 28 -3 5 -3 -53z"/>
<path d="M2102 578 l-2 -218 -165 0 c-104 0 -165 -4 -165 -10 0 -7 96 -9 277
-8 269 3 278 4 280 23 2 11 0 14 -3 8 -4 -9 -36 -13 -110 -13 l-104 0 -3 218
-2 217 -3 -217z"/>
<path d="M2324 590 c0 -113 2 -159 3 -102 2 56 2 148 0 205 -1 56 -3 10 -3
-103z"/>
<path d="M1828 713 c17 -2 47 -2 65 0 17 2 3 4 -33 4 -36 0 -50 -2 -32 -4z"/>
<path d="M1938 713 c6 -2 18 -2 25 0 6 3 1 5 -13 5 -14 0 -19 -2 -12 -5z"/>
<path d="M1988 713 c6 -2 18 -2 25 0 6 3 1 5 -13 5 -14 0 -19 -2 -12 -5z"/>
<path d="M1792 548 l3 -123 138 -3 137 -3 0 126 0 125 -140 0 -141 0 3 -122z"/>
</g>
</svg>
