<?xml version="1.0" standalone="no"?>
<!DOCTYPE svg PUBLIC "-//W3C//DTD SVG 20010904//EN"
 "http://www.w3.org/TR/2001/REC-SVG-20010904/DTD/svg10.dtd">
<svg version="1.0" xmlns="http://www.w3.org/2000/svg"
 width="225.000000pt" height="225.000000pt" viewBox="0 0 225.000000 225.000000"
 preserveAspectRatio="xMidYMid meet">

<g transform="translate(0.000000,225.000000) scale(0.100000,-0.100000)"
fill="#000000" stroke="none">
<path d="M0 1125 l0 -1125 1125 0 1125 0 0 483 c-1 442 -2 480 -16 457 -24
-38 -143 -126 -199 -145 -67 -25 -158 -25 -220 -1 -27 11 -89 43 -138 72 -48
29 -84 48 -81 42 4 -7 2 -8 -4 -4 -6 4 -51 -13 -100 -38 -58 -29 -89 -40 -89
-31 0 7 6 11 12 9 7 -3 11 7 11 25 0 24 -3 28 -15 21 -8 -4 -25 -4 -39 1 -13
5 -21 5 -18 0 3 -5 -27 -14 -67 -20 -97 -14 -163 -35 -159 -50 1 -7 -2 -10 -8
-6 -6 3 -7 11 -4 17 5 7 2 8 -7 2 -15 -10 -80 -34 -91 -34 -19 0 -5 18 17 24
14 4 23 10 21 15 -3 5 0 8 7 7 6 0 64 24 127 56 63 31 127 59 141 62 15 3 37
14 49 24 20 16 21 21 10 41 -10 19 -17 22 -41 17 -20 -4 -28 -2 -23 5 3 6 -2
26 -12 45 -18 33 -21 35 -59 30 -75 -10 -20 4 155 39 213 44 210 43 210 62 0
13 -13 15 -92 9 -59 -3 -86 -2 -73 4 16 7 13 9 -20 11 l-40 2 35 4 c58 6 81
13 75 23 -3 6 1 10 9 10 8 0 18 9 21 20 3 11 15 25 26 30 10 6 19 17 19 25 0
16 43 65 57 65 6 0 16 7 24 16 25 30 104 62 184 74 141 21 184 31 191 42 4 6
-10 27 -32 45 -54 47 -63 54 -104 82 -47 31 -115 103 -136 143 -9 17 -41 55
-71 84 -47 46 -66 57 -141 80 -88 26 -230 54 -487 93 -77 12 -165 26 -196 31
-30 6 -66 10 -78 10 -33 0 -101 21 -101 32 0 4 7 8 15 8 8 0 15 -5 15 -10 0
-6 11 -5 28 3 40 21 91 26 342 37 423 18 545 21 780 25 129 1 268 3 308 4 40
1 72 5 72 11 0 7 -382 10 -1125 10 l-1125 0 0 -1125z m494 492 c147 -367 169
-419 176 -407 4 6 12 -1 18 -17 11 -26 11 -27 -3 -9 -10 14 -15 16 -15 6 0
-28 -27 25 -85 170 -32 80 -85 210 -118 290 -32 80 -63 155 -68 168 -4 12 -5
22 -1 22 4 0 47 -100 96 -223z m56 -82 c62 -154 114 -287 117 -295 15 -50 -24
38 -92 205 -43 105 -92 226 -110 270 -35 88 -52 140 -37 115 6 -8 60 -141 122
-295z m-36 268 c15 -36 16 -23 2 22 -3 11 4 -2 17 -30 28 -58 44 -109 28 -85
-22 31 -8 -8 85 -238 108 -268 117 -291 74 -207 -22 44 -29 52 -26 30 4 -24 1
-21 -15 15 -41 90 -141 342 -137 345 2 3 35 -72 73 -166 38 -94 71 -167 72
-162 3 8 -52 147 -174 441 -14 34 -28 61 -30 58 -2 -2 10 -37 27 -77 17 -40
29 -77 27 -82 -1 -5 -18 29 -37 76 -19 48 -36 84 -38 82 -4 -3 87 -234 227
-575 17 -41 31 -77 31 -80 -1 -12 -25 39 -72 153 -41 102 -188 462 -205 505
-3 8 5 12 25 12 24 0 32 -6 46 -37z m65 1 c7 -19 11 -38 8 -40 -3 -3 -10 11
-17 31 -7 20 -14 34 -17 32 -4 -5 143 -374 186 -467 44 -94 5 12 -71 198 -44
106 -78 195 -75 198 2 3 31 -60 63 -140 31 -80 60 -144 62 -141 3 3 -3 23 -13
45 -10 22 -16 43 -13 46 4 3 15 -19 26 -48 11 -29 46 -114 76 -188 31 -74 56
-137 56 -140 -1 -3 -10 11 -21 30 -19 33 -21 21 -4 -25 5 -16 5 -17 -4 -5 -9
13 -11 13 -11 0 -1 -8 -10 1 -21 20 -19 33 -21 22 -4 -25 5 -16 4 -17 -4 -5
-26 41 -210 506 -206 521 3 9 -6 43 -20 74 -30 68 -29 65 -7 65 12 0 23 -13
31 -36z m36 24 c19 3 25 0 25 -14 0 -16 -2 -17 -10 -4 -16 24 -11 5 10 -46 11
-26 19 -52 17 -57 -2 -6 -14 18 -27 53 -13 35 -25 59 -27 53 -3 -9 53 -151 64
-163 3 -3 1 9 -3 25 -4 17 -3 26 2 22 5 -5 9 -25 10 -45 1 -20 5 -48 8 -62 6
-21 5 -22 -3 -5 -21 42 -89 211 -95 235 -3 14 -3 20 -1 14 3 -6 17 -9 30 -6z
m65 -28 c0 9 6 5 15 -10 9 -16 15 -19 15 -10 1 8 10 -3 20 -25 10 -22 19 -33
19 -25 1 13 2 13 11 0 13 -20 13 -39 0 -20 -8 11 -9 7 -5 -15 4 -24 0 -19 -20
20 -14 28 -22 41 -19 30 16 -52 12 -56 -11 -10 -25 48 -26 48 -11 -5 6 -19 5
-21 -3 -10 -15 22 -13 5 4 -37 17 -41 20 -65 4 -43 -9 12 -10 11 -4 -5 4 -11
14 -39 22 -63 8 -24 18 -41 20 -38 3 3 -2 23 -11 46 -18 46 -21 62 -6 40 8
-11 9 -8 4 13 -12 50 2 28 41 -68 21 -52 40 -93 43 -91 2 3 -10 39 -28 81 -17
43 -29 79 -27 82 3 2 17 -28 32 -66 29 -74 41 -91 31 -43 -4 21 -1 18 15 -13
11 -22 18 -33 16 -25 -3 8 -7 26 -11 40 -3 14 5 3 18 -25 36 -72 32 -40 -5 40
-16 37 -28 72 -27 77 2 6 24 -38 48 -98 66 -164 115 -261 75 -149 -5 16 -5 17
4 5 12 -17 15 -2 5 25 -5 12 -9 13 -14 5 -4 -7 -20 19 -39 63 -31 76 -39 105
-21 77 12 -18 12 -2 0 25 l-9 20 -1 -20 c-1 -19 -2 -18 -10 3 -5 12 -8 28 -6
35 1 6 0 8 -2 2 -3 -5 -14 8 -24 30 -16 34 -17 36 -12 10 8 -42 1 -31 -35 55
-31 73 -40 109 -21 80 5 -8 10 -10 10 -5 0 6 -5 17 -10 25 -9 13 -10 13 -10 0
0 -13 -1 -13 -10 0 -8 11 -9 7 -5 -15 l5 -30 -14 30 c-12 24 -15 26 -16 10 -1
-19 -1 -19 -11 -2 -6 9 -14 15 -20 12 -5 -4 -9 -1 -9 4 0 7 21 10 56 8 68 -4
52 21 173 -271 88 -210 102 -248 81 -216 -9 13 -10 13 -10 0 0 -8 5 -22 10
-30 9 -13 10 -13 11 0 0 8 11 -7 24 -35 26 -55 33 -84 10 -45 -9 15 -15 19
-15 10 0 -9 -6 -5 -15 10 -9 15 -15 19 -15 10 0 -9 -6 -5 -15 10 -8 14 -14 19
-14 10 0 -8 6 -26 14 -40 19 -34 18 -52 -1 -20 -14 24 -15 24 -11 2 3 -14 1
-20 -6 -15 -6 4 -8 0 -4 -10 10 -26 -1 -20 -18 11 -14 23 -16 24 -12 4 3 -12
1 -20 -4 -16 -5 3 -9 -1 -9 -8 -1 -7 -8 -2 -16 12 l-15 25 5 -24 c10 -50 -14
1 -103 215 -51 121 -89 227 -86 235 3 8 -6 42 -19 75 -15 36 -23 70 -19 84 l6
22 13 -23 c8 -15 14 -18 14 -9z m40 -130 c0 -13 -1 -13 -10 0 -5 8 -10 22 -10
30 0 13 1 13 10 0 5 -8 10 -22 10 -30z m84 -39 c27 -68 35 -107 11 -56 l-14
30 5 -30 c3 -22 -2 -16 -21 24 -16 34 -23 62 -19 78 8 30 7 31 38 -46z m-54
19 c0 -13 -1 -13 -10 0 -5 8 -10 22 -10 30 0 13 1 13 10 0 5 -8 10 -22 10 -30z
m-11 -465 c0 -5 -8 6 -19 25 -11 19 -19 40 -19 45 0 6 8 -6 19 -25 11 -19 19
-39 19 -45z m654 38 c-7 -2 -19 -2 -25 0 -7 3 -2 5 12 5 14 0 19 -2 13 -5z
m-404 -123 c11 -24 11 -24 -3 -6 -9 11 -16 24 -16 30 0 12 5 7 19 -24z m-78
-21 c11 -23 16 -38 10 -34 -14 8 -14 -1 -1 -26 6 -10 8 -19 6 -19 -3 0 -13 14
-22 31 -8 17 -11 28 -5 25 15 -10 14 0 -4 34 -9 17 -13 30 -10 30 2 0 14 -18
26 -41z m39 12 c8 -15 8 -21 1 -17 -15 10 -14 0 4 -34 9 -17 13 -30 10 -30 -2
0 -14 18 -26 41 -11 23 -15 38 -9 34 9 -5 10 -1 5 16 -9 28 -3 24 15 -10z
m247 23 c-3 -3 -12 -4 -19 -1 -8 3 -5 6 6 6 11 1 17 -2 13 -5z m-320 -19 c4
-4 2 -5 -4 -1 -18 10 -16 2 7 -44 11 -22 18 -40 15 -40 -2 0 -16 22 -30 49
-18 37 -21 49 -10 47 8 -1 18 -6 22 -11z m-98 -35 c11 -24 11 -24 -3 -6 -9 11
-16 24 -16 30 0 12 5 7 19 -24z m251 10 c6 -11 8 -20 6 -20 -3 0 -10 9 -16 20
-6 11 -8 20 -6 20 3 0 10 -9 16 -20z m-271 -20 c11 -24 11 -24 -3 -6 -9 11
-16 24 -16 30 0 12 5 7 19 -24z m65 14 c3 -8 2 -12 -4 -9 -14 9 -12 -1 5 -35
9 -17 13 -30 10 -30 -2 0 -14 18 -26 41 -11 23 -16 38 -10 34 6 -3 11 -1 11 4
0 16 7 13 14 -5z m166 -4 c6 -11 8 -20 6 -20 -3 0 -10 9 -16 20 -6 11 -8 20
-6 20 3 0 10 -9 16 -20z m99 -20 c11 -24 11 -24 -3 -6 -9 11 -16 24 -16 30 0
12 5 7 19 -24z m52 -11 c9 -17 8 -20 -2 -14 -9 6 -11 3 -6 -8 9 -24 0 -21 -14
4 -9 17 -8 20 2 14 9 -6 11 -3 6 8 -9 24 0 21 14 -4z m-371 -43 c0 -12 -5 -7
-19 24 -11 24 -11 24 3 6 9 -11 16 -24 16 -30z m271 23 c9 -17 8 -20 -2 -14
-9 6 -11 3 -6 -8 9 -24 0 -21 -14 4 -9 17 -8 20 2 14 9 -6 11 -3 6 8 -9 24 0
21 14 -4z m-246 -19 c9 -16 13 -30 11 -30 -3 0 -12 14 -21 30 -9 17 -13 30
-11 30 3 0 12 -13 21 -30z m95 0 c6 -11 8 -20 6 -20 -3 0 -10 9 -16 20 -6 11
-8 20 -6 20 3 0 10 -9 16 -20z m70 0 c6 -11 8 -20 6 -20 -3 0 -10 9 -16 20 -6
11 -8 20 -6 20 3 0 10 -9 16 -20z m-114 -27 c-8 25 -1 21 20 -10 15 -24 15
-26 1 -14 -20 16 -23 2 -4 -19 10 -12 9 -12 -3 -3 -8 6 -23 26 -33 45 l-19 33
22 -25 c15 -17 20 -19 16 -7z m287 7 c10 -12 9 -12 -4 -2 -9 6 -18 9 -21 6 -3
-3 -9 -1 -12 4 -9 15 22 8 37 -8z m-333 -30 c12 -16 19 -30 16 -30 -2 0 -14
14 -26 30 -12 17 -19 30 -16 30 2 0 14 -13 26 -30z m284 2 c3 -5 -1 -9 -9 -9
-8 0 -12 4 -9 9 3 4 7 8 9 8 2 0 6 -4 9 -8z m-31 -22 c10 -12 9 -12 -4 -2 -9
6 -18 9 -21 6 -3 -3 -9 -1 -12 4 -9 15 22 8 37 -8z m74 -2 c-3 -8 -6 -5 -6 6
-1 11 2 17 5 13 3 -3 4 -12 1 -19z m-94 -11 c4 3 7 4 7 0 0 -17 -20 -14 -36 6
-19 22 -19 22 2 4 11 -9 24 -14 27 -10z m-121 -2 c7 7 32 -23 34 -42 2 -8 0
-13 -3 -10 -2 3 -3 7 -1 10 5 7 -24 37 -32 32 -4 -3 -14 3 -21 13 -12 15 -12
16 2 5 9 -7 18 -11 21 -8z m91 -15 c10 -12 9 -12 -4 -2 -9 6 -18 9 -21 6 -3
-3 -9 -1 -12 4 -9 15 22 8 37 -8z m-130 -23 c4 3 7 4 7 0 0 -18 -20 -13 -41
11 l-24 27 26 -23 c14 -12 29 -19 32 -15z m40 10 c4 3 7 4 7 1 0 -3 -8 -12
-17 -19 -10 -7 -15 -9 -11 -5 10 12 -12 37 -25 29 -6 -4 -7 -1 -3 6 6 9 12 9
25 -3 10 -9 21 -13 24 -9z m487 -7 c8 -5 11 -10 5 -10 -5 0 -17 5 -25 10 -8 5
-10 10 -5 10 6 0 17 -5 25 -10z m-560 -90 c0 -5 -4 -10 -10 -10 -5 0 -10 5
-10 10 0 6 5 10 10 10 6 0 10 -4 10 -10z m707 -46 c-3 -3 -12 -4 -19 -1 -8 3
-5 6 6 6 11 1 17 -2 13 -5z m173 -49 c19 -7 28 -13 20 -13 -8 0 -31 6 -50 13
-19 7 -28 13 -20 13 8 0 31 -6 50 -13z m119 -41 c19 -8 32 -16 29 -19 -3 -3
-18 1 -34 8 -16 8 -40 19 -54 25 l-25 12 25 -6 c14 -4 40 -13 59 -20z m61
-144 c-23 -15 -122 -51 -127 -47 -2 2 23 14 56 26 33 12 63 26 67 32 3 6 9 8
12 4 4 -3 0 -10 -8 -15z m-380 -64 c0 5 8 0 17 -11 15 -20 15 -20 10 1 -5 25
19 27 34 3 7 -11 9 -11 9 -1 0 7 4 11 9 8 5 -4 12 0 14 6 3 7 6 3 6 -9 1 -18
-6 -23 -36 -29 -21 -4 -54 -8 -73 -8 -19 -1 -37 -4 -40 -7 -3 -4 -23 -9 -45
-13 -22 -3 -76 -12 -119 -21 -88 -17 -109 -15 -44 4 24 7 49 18 57 25 12 9 13
8 7 -2 -6 -11 -4 -11 10 -3 11 5 42 17 70 26 28 8 60 22 70 29 13 10 23 11 31
4 7 -6 13 -7 13 -2z m-600 -81 c0 -8 -4 -15 -10 -15 -5 0 -10 7 -10 15 0 8 5
15 10 15 6 0 10 -7 10 -15z m-110 -15 c0 -5 -5 -10 -11 -10 -5 0 -7 5 -4 10 3
6 8 10 11 10 2 0 4 -4 4 -10z"/>
<path d="M531 1760 c0 -8 4 -22 9 -30 12 -18 12 -2 0 25 -6 13 -9 15 -9 5z"/>
<path d="M580 1697 c0 -4 36 -96 81 -205 44 -108 85 -210 91 -225 6 -15 12
-26 15 -24 5 5 -10 43 -106 277 -69 166 -81 192 -81 177z"/>
<path d="M720 1466 c0 -3 11 -34 25 -68 14 -34 23 -69 20 -79 -3 -9 5 -41 18
-70 l24 -54 -2 45 c-2 45 -85 267 -85 226z m74 -196 c5 -17 4 -20 -2 -10 -5 8
-13 26 -16 40 -5 17 -4 20 2 10 5 -8 13 -26 16 -40z"/>
<path d="M770 1813 c1 -5 7 -19 15 -33 8 -14 14 -32 14 -40 0 -9 -6 -4 -14 10
-21 36 -17 12 5 -35 17 -35 19 -37 14 -10 -4 24 0 20 20 -20 32 -62 27 -40
-14 59 -29 69 -41 89 -40 69z"/>
<path d="M650 1795 c0 -5 5 -17 10 -25 5 -8 10 -10 10 -5 0 6 -5 17 -10 25 -5
8 -10 11 -10 5z"/>
<path d="M734 1590 c5 -14 9 -41 11 -60 2 -19 29 -96 60 -170 55 -132 74 -169
61 -120 -5 19 -2 17 12 -9 l19 -34 7 27 c4 17 1 36 -9 54 -16 27 -16 16 -1
-33 3 -11 -5 3 -19 30 -19 38 -24 43 -19 20 3 -16 3 -28 1 -25 -10 10 -98 232
-94 236 2 3 21 -38 42 -91 21 -52 40 -93 43 -90 3 2 -21 67 -53 142 -56 134
-76 174 -61 123z"/>
<path d="M896 1520 c10 -36 42 -107 43 -94 1 6 -10 36 -24 65 -14 30 -22 43
-19 29z"/>
<path d="M817 1480 c-6 -23 54 -192 61 -172 2 6 -4 24 -12 41 -9 16 -16 36
-16 43 0 7 9 -5 19 -27 11 -22 20 -35 20 -29 1 6 -10 36 -24 65 -18 38 -24 45
-20 24 4 -22 3 -26 -5 -15 -5 8 -8 26 -5 40 7 33 -10 61 -18 30z"/>
<path d="M851 1474 c-1 -6 10 -37 24 -69 14 -31 23 -65 20 -74 -3 -10 6 -42
19 -72 14 -30 26 -47 26 -39 9 74 5 99 -26 169 -19 42 -34 67 -34 56 -1 -16
-4 -13 -15 10 -7 17 -14 25 -14 19z m78 -149 c0 -15 -36 56 -43 85 -3 14 5 3
18 -25 14 -27 25 -54 25 -60z m7 -82 c-4 -4 -36 73 -35 85 0 4 9 -13 20 -37
11 -24 18 -46 15 -48z"/>
<path d="M960 1310 c0 -8 5 -22 10 -30 9 -13 10 -13 10 0 0 8 -5 22 -10 30 -9
13 -10 13 -10 0z"/>
<path d="M990 1290 c0 -8 5 -22 10 -30 9 -13 10 -13 10 0 0 8 -5 22 -10 30 -9
13 -10 13 -10 0z"/>
<path d="M776 1650 c3 -14 11 -32 16 -40 6 -10 7 -7 2 10 -3 14 -11 32 -16 40
-6 10 -7 7 -2 -10z"/>
<path d="M1490 431 c0 -6 4 -13 10 -16 6 -3 7 1 4 9 -7 18 -14 21 -14 7z"/>
<path d="M1774 1044 c0 -13 6 -22 11 -21 16 6 17 34 2 40 -11 4 -14 -1 -13
-19z"/>
<path d="M1633 1043 c-3 -7 -3 -18 0 -25 3 -7 6 -2 7 12 l2 25 8 -25 8 -25 1
25 c1 20 3 22 11 10 8 -13 10 -13 10 2 0 20 -40 21 -47 1z"/>
<path d="M1428 1032 c4 -10 7 -12 10 -4 2 7 9 9 15 5 7 -3 8 -2 4 2 -14 16
-36 14 -29 -3z"/>
<path d="M1499 1021 l5 -26 4 24 c3 19 6 21 14 10 8 -12 9 -12 6 0 -2 8 -11
15 -19 17 -12 1 -14 -5 -10 -25z"/>
<path d="M1611 1034 c0 -11 3 -14 6 -6 3 7 2 16 -1 19 -3 4 -6 -2 -5 -13z"/>
<path d="M1411 1014 c0 -11 3 -14 6 -6 3 7 2 16 -1 19 -3 4 -6 -2 -5 -13z"/>
<path d="M1464 874 c-18 -14 -18 -14 6 -3 31 14 36 19 24 19 -6 0 -19 -7 -30
-16z"/>
</g>
</svg>
