<?xml version="1.0" standalone="no"?>
<!DOCTYPE svg PUBLIC "-//W3C//DTD SVG 20010904//EN"
 "http://www.w3.org/TR/2001/REC-SVG-20010904/DTD/svg10.dtd">
<svg version="1.0" xmlns="http://www.w3.org/2000/svg"
 width="275.000000pt" height="183.000000pt" viewBox="0 0 275.000000 183.000000"
 preserveAspectRatio="xMidYMid meet">

<g transform="translate(0.000000,183.000000) scale(0.100000,-0.100000)"
fill="#000000" stroke="none">
<path d="M0 915 l0 -915 297 0 c247 0 305 3 348 16 69 22 97 45 98 77 0 30 12
36 21 10 5 -12 9 -14 18 -5 7 7 22 12 35 12 13 0 23 4 23 8 0 10 117 29 265
42 220 20 304 33 490 77 200 47 629 139 680 146 l30 4 -32 2 c-17 0 -33 6 -35
12 -3 9 -59 2 -120 -17 -15 -4 -18 5 -21 83 l-3 88 -2 -87 c-2 -73 -5 -87 -20
-92 -9 -2 -60 -14 -112 -25 -52 -11 -127 -27 -167 -35 -40 -9 -74 -16 -77 -16
-3 0 -7 80 -9 178 l-2 177 -3 -176 c-2 -196 3 -183 -76 -194 l-46 -7 1 63 c0
35 4 84 9 109 22 122 32 167 41 183 6 11 9 38 7 60 -2 39 -1 42 27 48 17 3
-46 5 -140 5 -150 0 -177 2 -234 22 -60 21 -194 32 -177 15 4 -4 23 -6 42 -4
33 2 34 2 34 -36 0 -28 -3 -34 -10 -23 -7 11 -10 11 -10 2 0 -9 -5 -10 -19 -2
-26 13 -31 13 -31 -5 0 -8 -9 -15 -20 -15 -17 0 -20 7 -20 40 0 35 -3 40 -22
39 -17 -1 -19 -2 -5 -6 12 -3 17 -15 17 -39 0 -30 -3 -34 -25 -32 -22 2 -24 6
-21 40 l4 38 -160 -1 c-87 -1 -161 1 -163 3 -2 2 -5 93 -7 203 l-3 200 59 2
c62 3 92 13 38 13 -18 0 -32 3 -33 8 -3 41 -5 101 -2 81 4 -29 35 -39 121 -39
43 0 51 -7 30 -28 -9 -9 -7 -12 11 -12 12 0 20 4 16 9 -3 5 0 13 6 17 8 4 9 3
5 -4 -7 -12 28 -31 55 -30 55 3 151 -3 145 -9 -4 -5 -74 -7 -154 -7 -81 1
-120 0 -87 -2 128 -8 163 -15 192 -40 23 -20 26 -26 13 -34 -13 -9 -13 -10 0
-11 10 0 8 -3 -5 -9 -17 -7 -14 -9 15 -11 34 -2 34 -2 -10 -10 -32 -5 -21 -6
40 -3 47 2 108 4 135 4 l50 0 1 160 c1 180 9 164 -87 175 -42 4 -65 2 -91 -10
-34 -17 -34 -18 -31 -74 4 -51 3 -54 -10 -33 -7 12 -16 19 -21 15 -4 -4 -4 0
-1 8 3 8 -1 29 -10 45 -8 16 -15 25 -16 19 -1 -5 -2 -23 -4 -38 -1 -16 -8 -32
-15 -37 -7 -4 -9 -16 -6 -27 7 -23 -11 -42 -46 -48 -17 -3 -25 0 -25 11 0 8 6
13 14 10 17 -7 16 4 -2 28 -14 18 -20 15 -16 -8 1 -5 -6 -3 -15 5 -16 12 -17
12 -11 -3 4 -12 2 -15 -9 -11 -7 3 -14 11 -14 19 0 8 -9 14 -20 14 -20 0 -24
9 -20 44 1 11 -3 15 -9 12 -6 -4 -11 -2 -11 3 0 6 -12 11 -27 11 -62 0 -73 9
-73 56 0 28 -4 44 -12 45 -42 2 -229 37 -208 39 18 2 20 4 8 7 -35 9 -10 78
31 86 14 3 37 8 51 11 39 10 157 18 250 19 87 0 370 -13 403 -18 130 -22 213
-43 265 -68 34 -16 62 -34 62 -39 0 -5 8 -22 18 -36 24 -35 46 -107 38 -121
-4 -6 -15 -11 -25 -11 -9 0 -22 -5 -29 -12 -8 -8 -6 -16 10 -30 12 -10 29 -18
39 -18 10 0 21 -4 24 -10 3 -5 2 -10 -3 -10 -6 0 -8 -10 -5 -21 6 -21 4 -21
-50 -15 l-57 7 0 -30 c0 -31 1 -31 53 -32 66 -1 112 -17 52 -18 -25 -1 -35 -4
-27 -10 9 -5 11 -17 6 -34 -4 -18 -2 -27 6 -27 6 0 18 -7 26 -15 9 -8 26 -15
39 -15 30 0 36 -10 27 -41 -7 -24 -31 -32 -43 -15 -4 5 -10 -1 -14 -13 -3 -11
-12 -21 -20 -21 -13 0 -28 -34 -26 -57 1 -6 -3 -14 -9 -18 -6 -4 -10 7 -11 27
-1 30 -3 28 -14 -17 -8 -36 -13 -44 -17 -30 -5 16 -6 17 -7 3 -1 -23 -28 -23
-34 0 -4 16 -5 16 -6 0 -1 -13 -9 -18 -28 -18 -14 0 -23 -3 -20 -7 4 -3 34 -5
67 -4 l60 2 0 -32 c0 -18 3 -29 7 -25 8 7 9 12 12 39 2 23 281 9 281 -14 0 -5
5 -9 11 -9 5 0 8 4 5 9 -4 5 2 7 12 4 12 -3 19 1 20 11 1 9 3 23 4 32 1 9 10
19 20 22 15 3 18 11 14 28 -5 17 -2 24 9 24 10 0 15 -10 15 -29 0 -16 3 -43 6
-60 6 -30 8 -31 60 -31 l54 0 0 205 0 206 -36 -7 c-30 -5 -35 -4 -30 7 4 8 1
6 -7 -4 -13 -16 -31 -19 -131 -19 l-116 -1 0 -28 c0 -23 -4 -29 -22 -29 -12 0
-32 -12 -45 -27 l-23 -28 3 125 2 125 27 2 c15 1 34 -5 42 -13 8 -7 23 -11 33
-8 17 5 17 5 0 -9 -14 -11 -15 -16 -5 -20 10 -4 10 -6 1 -6 -8 -1 -13 -14 -13
-31 0 -22 5 -30 18 -30 32 0 45 16 40 53 -5 46 23 68 44 34 8 -12 18 -30 21
-40 4 -10 11 -15 17 -12 5 3 10 -1 10 -9 0 -22 85 -23 94 -1 3 8 1 15 -4 15
-6 0 -10 9 -10 20 0 30 -28 93 -47 108 -15 11 -15 12 5 12 12 0 22 -5 22 -12
0 -6 3 -8 7 -5 3 4 18 0 32 -10 22 -14 24 -14 13 -1 -7 9 -26 21 -43 28 -16 7
-28 15 -25 17 9 10 76 -30 93 -55 10 -15 20 -52 24 -82 4 -37 7 -7 8 91 l1
145 295 110 295 109 0 53 0 52 -78 0 c-65 0 -83 -4 -112 -23 -19 -13 -41 -22
-47 -20 -7 3 -13 0 -13 -6 0 -6 -7 -11 -16 -11 -8 0 -66 -21 -127 -46 -62 -26
-125 -50 -142 -55 -39 -11 -656 -19 -630 -8 13 6 7 7 -18 3 -20 -4 -65 -1
-100 5 -63 11 -126 20 -217 31 -8 1 -4 5 10 9 19 6 6 10 -57 20 -57 9 -83 18
-83 27 0 8 -12 16 -27 20 -16 3 -39 9 -53 14 -25 7 -25 7 10 23 32 14 -8 15
-507 16 l-543 1 0 -915z m210 131 l0 -723 -71 -7 c-39 -4 -72 -6 -74 -4 -12
14 -10 1410 3 1406 12 -5 122 35 122 44 0 4 5 8 10 8 7 0 10 -248 10 -724z
m337 212 c-2 -18 -4 -4 -4 32 0 36 2 50 4 33 2 -18 2 -48 0 -65z m295 78 c6 4
9 1 6 -7 -6 -18 -45 -20 -45 -3 0 7 4 11 9 8 4 -3 8 1 9 8 0 10 2 10 6 0 2 -6
9 -9 15 -6z m1043 -6 c-3 -5 -12 -10 -18 -10 -7 0 -6 4 3 10 19 12 23 12 15 0z
m-795 -91 c0 -11 -4 -17 -10 -14 -5 3 -10 13 -10 21 0 8 5 14 10 14 6 0 10 -9
10 -21z m-580 -92 c0 -29 -5 -58 -12 -65 -9 -9 -9 -12 1 -12 7 0 9 -5 4 -12
-4 -7 -10 -71 -13 -142 -4 -107 -8 -131 -22 -140 -21 -13 -29 -6 -32 28 -2 17
2 26 11 26 11 0 13 13 11 58 -3 56 -3 57 -35 60 -37 4 -45 29 -12 34 21 3 22
8 20 111 l-2 107 40 0 41 0 0 -53z m45 6 c-4 -21 -6 -116 -6 -211 1 -119 -2
-172 -9 -167 -7 4 -10 78 -9 211 0 176 3 204 16 204 12 0 14 -7 8 -37z m114
-90 c-1 -84 -3 -98 -9 -63 -14 89 -19 146 -10 125 7 -17 9 -15 9 13 1 17 3 32
6 32 3 0 4 -48 4 -107z m1178 -55 c-2 -13 -4 -3 -4 22 0 25 2 35 4 23 2 -13 2
-33 0 -45z m-1270 -165 c-2 -38 -3 -7 -3 67 0 74 1 105 3 68 2 -38 2 -98 0
-135z m1200 155 c-3 -8 -6 -5 -6 6 -1 11 2 17 5 13 3 -3 4 -12 1 -19z m70 -50
c-3 -8 -6 -5 -6 6 -1 11 2 17 5 13 3 -3 4 -12 1 -19z m123 -74 c0 -65 -19 -71
-33 -11 -10 43 -4 67 18 67 12 0 15 -12 15 -56z m-50 6 c0 -29 -4 -40 -15 -40
-8 0 -15 9 -15 20 0 11 5 20 10 20 6 0 10 9 10 20 0 11 2 20 5 20 3 0 5 -18 5
-40z m-1507 -17 c-7 -2 -21 -2 -30 0 -10 3 -4 5 12 5 17 0 24 -2 18 -5z m1484
-39 c-3 -3 -12 -4 -19 -1 -8 3 -5 6 6 6 11 1 17 -2 13 -5z m-1139 -216 c-1
-131 -3 -147 -7 -78 -4 59 -9 81 -16 70 -13 -20 -23 17 -24 91 l-1 55 -92 -2
-93 -3 105 13 c58 7 111 14 118 14 9 2 12 -35 10 -160z m162 153 c0 -5 -7 -11
-15 -15 -9 -3 -15 0 -15 9 0 8 7 15 15 15 8 0 15 -4 15 -9z m90 5 c0 -2 -11
-6 -25 -8 -13 -3 -22 -1 -19 3 5 9 44 13 44 5z m-491 -20 c-2 -2 -38 -6 -79
-9 -44 -3 -65 -2 -50 3 24 8 137 14 129 6z m398 -22 c-3 -3 -12 -4 -19 -1 -8
3 -5 6 6 6 11 1 17 -2 13 -5z m542 -21 l0 -28 -11 25 c-10 21 -13 11 -19 -74
-5 -54 -11 -101 -14 -104 -3 -3 -5 43 -5 101 l0 107 25 0 c21 0 25 -5 24 -27z
m73 15 c-5 -7 -12 -24 -15 -38 l-4 -25 -2 27 c-1 32 -21 49 -21 19 0 -12 -4
-21 -10 -21 -11 0 -13 11 -4 34 4 10 18 16 36 16 23 0 28 -3 20 -12z m-1075
-20 c-3 -8 -6 -5 -6 6 -1 11 2 17 5 13 3 -3 4 -12 1 -19z m729 -293 c10 -42
-1 -53 -61 -60 -71 -9 -133 -2 -175 19 -18 9 -52 16 -74 17 l-41 1 35 9 c30 8
237 34 292 38 11 1 20 -9 24 -24z m-463 -12 c-7 -2 -19 -2 -25 0 -7 3 -2 5 12
5 14 0 19 -2 13 -5z m35 -74 c2 -44 -6 -68 -17 -51 -8 14 -1 103 8 97 4 -2 8
-23 9 -46z m-115 -46 c-7 -2 -19 -2 -25 0 -7 3 -2 5 12 5 14 0 19 -2 13 -5z
m-75 -10 c-15 -2 -42 -2 -60 0 -18 2 -6 4 27 4 33 0 48 -2 33 -4z"/>
<path d="M2707 1659 c-17 -10 -116 -46 -147 -54 -8 -2 -73 -24 -143 -49 -71
-25 -143 -47 -160 -50 -18 -2 -34 -5 -37 -5 -3 -1 2 -6 10 -11 13 -8 15 -55
18 -302 1 -161 4 -313 5 -338 2 -25 4 107 5 292 l2 338 25 6 c14 4 29 3 33 -1
4 -3 8 -224 10 -490 l3 -484 -26 -42 c-15 -22 -25 -42 -23 -44 6 -7 58 8 53
15 -8 13 114 16 124 3 13 -18 57 -39 85 -41 35 -2 49 -12 17 -12 -37 0 -8 -36
36 -45 27 -5 33 -9 22 -16 -11 -7 -11 -9 4 -9 9 0 17 7 17 15 0 17 75 22 85 5
16 -26 25 -4 25 64 l0 73 -45 6 c-54 6 -55 6 -58 43 -2 29 -1 29 51 28 l52 -2
0 78 c0 85 -4 90 -72 90 -15 0 -30 5 -33 10 -9 14 6 231 15 225 3 -2 7 2 7 10
0 8 -4 12 -9 9 -4 -3 -8 7 -8 23 0 19 3 24 9 14 6 -9 11 -10 15 -2 4 6 1 13
-6 16 -14 6 -16 83 -3 120 5 16 5 17 -4 5 -9 -12 -11 -11 -11 10 0 14 -3 109
-6 212 l-6 186 56 18 c55 17 56 18 56 56 0 40 -10 46 -43 27z m-79 -515 c-2
-291 -6 -408 -15 -415 -6 -6 -31 -7 -60 -2 -41 7 -48 12 -49 32 -2 33 18 83
40 102 21 17 15 39 -11 39 -13 0 -13 3 -3 15 9 10 9 15 1 15 -6 0 -11 9 -11
20 0 11 5 20 11 20 5 0 7 5 4 10 -5 8 -12 7 -23 -2 -15 -12 -16 -11 -3 5 7 9
10 17 7 17 -4 0 0 10 8 21 14 21 11 54 -4 44 -5 -3 -9 3 -9 12 -1 10 -1 25 -1
33 -2 30 4 60 12 60 4 0 8 4 8 9 0 5 -9 7 -19 4 -17 -4 -19 -1 -16 29 3 18 2
27 -1 19 -5 -11 -8 -11 -15 0 -5 8 -10 -106 -11 -271 -3 -321 -2 -409 5 -417
3 -2 40 -10 81 -15 42 -6 76 -15 76 -21 0 -10 -15 -8 -160 22 l-85 17 -3 459
c-1 252 1 462 6 467 7 7 214 75 235 77 4 1 6 -182 5 -405z m-104 -109 c-4 -8
-11 -15 -16 -15 -6 0 -5 6 2 15 7 8 14 15 16 15 2 0 1 -7 -2 -15z m101 -486
c11 -17 -1 -21 -36 -14 -23 5 -28 10 -18 16 19 12 46 11 54 -2z"/>
<path d="M1386 1264 c-3 -9 -4 -19 -1 -23 2 -5 1 -21 -4 -37 -6 -21 -4 -33 5
-42 18 -16 27 -15 20 3 -3 8 0 15 7 15 7 0 8 3 2 8 -5 4 -10 23 -10 42 0 19 5
38 10 42 6 5 3 8 -6 8 -9 0 -20 -7 -23 -16z"/>
<path d="M1590 1256 c0 -2 7 -6 15 -10 8 -3 15 -1 15 4 0 6 -7 10 -15 10 -8 0
-15 -2 -15 -4z"/>
<path d="M760 1099 c0 -5 9 -9 20 -9 11 0 20 2 20 4 0 2 -9 6 -20 9 -11 3 -20
1 -20 -4z"/>
<path d="M1025 1100 c3 -5 18 -10 33 -10 21 0 24 2 12 10 -20 13 -53 13 -45 0z"/>
<path d="M1360 1085 c0 -11 11 -15 43 -14 l42 1 -35 13 c-46 18 -50 18 -50 0z"/>
<path d="M783 1073 c15 -2 37 -2 50 0 12 2 0 4 -28 4 -27 0 -38 -2 -22 -4z"/>
<path d="M1218 1053 c12 -2 32 -2 45 0 12 2 2 4 -23 4 -25 0 -35 -2 -22 -4z"/>
<path d="M920 866 c16 -21 5 -33 -15 -16 -12 10 -15 10 -15 0 0 -7 -7 -10 -15
-6 -8 3 -15 1 -15 -5 0 -6 10 -9 23 -6 12 2 33 1 47 -4 18 -6 7 -8 -37 -6 -36
1 -62 -2 -62 -8 -1 -14 40 -14 134 0 73 10 77 12 45 19 -19 4 -50 17 -69 28
-26 15 -31 16 -21 4z"/>
<path d="M1337 834 c-2 -2 -54 -5 -116 -5 -61 -1 -114 -5 -117 -11 -4 -6 39
-8 122 -4 71 3 147 5 168 5 22 1 37 4 34 7 -7 7 -85 14 -91 8z"/>
<path d="M1600 779 c0 -5 5 -7 10 -4 6 3 10 8 10 11 0 2 -4 4 -10 4 -5 0 -10
-5 -10 -11z"/>
<path d="M1125 750 c-3 -5 -1 -10 4 -10 6 0 11 5 11 10 0 6 -2 10 -4 10 -3 0
-8 -4 -11 -10z"/>
<path d="M1838 753 c6 -2 18 -2 25 0 6 3 1 5 -13 5 -14 0 -19 -2 -12 -5z"/>
<path d="M1701 728 c-1 -23 3 -28 22 -27 15 1 17 3 5 6 -9 2 -19 14 -21 26 -4
18 -5 17 -6 -5z"/>
<path d="M1758 713 c7 -3 16 -2 19 1 4 3 -2 6 -13 5 -11 0 -14 -3 -6 -6z"/>
<path d="M2166 613 c-9 -57 -7 -103 4 -103 6 0 10 30 10 70 0 39 -2 70 -4 70
-2 0 -6 -17 -10 -37z"/>
<path d="M2676 511 c-18 -7 -18 -8 -2 -14 32 -13 76 -8 76 8 0 16 -40 19 -74
6z"/>
<path d="M2328 223 c6 -2 18 -2 25 0 6 3 1 5 -13 5 -14 0 -19 -2 -12 -5z"/>
<path d="M1658 133 c7 -3 16 -2 19 1 4 3 -2 6 -13 5 -11 0 -14 -3 -6 -6z"/>
<path d="M1270 16 c-33 -14 -29 -15 85 -15 84 -1 116 2 108 10 -17 17 -153 21
-193 5z"/>
</g>
</svg>
